<?xml version="1.0" encoding="UTF-8"?><svg id="Layer_2" xmlns="http://www.w3.org/2000/svg" viewBox="0 0 660 160.77"><defs><style>.cls-1{fill:#f93d3d;}.cls-2{fill:#fff;}.cls-3{fill:#101433;}</style></defs><g id="Layer_1-2"><path class="cls-1" d="m100.41,142.6c13.38,1.1,26.36-1.96,37.93-8.23-8.62.48-13.22-2.64-14.66-3.85-.17-.15-.33-.3-.5-.46,12.22-4.7,24.18-12.07,31.12-22.44-4.9,2.72-10.16,3.23-15.68,2.33,15.96-10.07,18.94-22.91,21.9-33.22-3.97,4.27-8.78,6.98-14.63,8.05,8.49-13.75,8.52-24.86,6.74-37.53-2.27,7.11-4.17,9.68-9.07,12.4,1.13-13.31-.76-23.66-8.21-37.7.13,1.73.2,3.2.21,4.49-.39,6.21-3.64,9.69-4.4,10.43-.06.05-.11.11-.17.16-4.71-12.14-12.57-22.62-22.52-30.89.52,1.09.96,2.09,1.32,3.03,1.01,2.85,2.06,7.42.99,12.55C101.16,12.2,89.65,4.85,77.42,0c4.28,4.01,6.99,8.85,8.15,14.5-12.84-5.33-25.39-8.06-37.91-5.33,4.78,1.35,9.73,4.13,12.45,9-13.38-1.1-26.36,1.96-37.93,8.23,8.62-.48,13.22,2.64,14.66,3.85.17.15.33.3.5.46-12.22,4.7-24.18,12.07-31.12,22.44,4.9-2.72,10.16-3.23,15.68-2.33C5.94,60.89,2.96,73.73,0,84.03c3.97-4.27,8.78-6.98,14.63-8.05-8.49,13.75-8.52,24.86-6.74,37.53,2.27-7.11,4.17-9.68,9.07-12.4-1.13,13.31.76,23.66,8.21,37.7-.13-1.73-.2-3.2-.21-4.49.39-6.21,3.64-9.69,4.4-10.43.06-.05.11-.11.17-.16,4.71,12.14,12.57,22.62,22.52,30.89-.52-1.09-.96-2.09-1.32-3.03-1.01-2.85-2.06-7.42-.99-12.55,9.63,9.52,21.13,16.87,33.37,21.72-4.28-4.01-6.99-8.85-8.15-14.5,12.84,5.33,25.39,8.06,37.91,5.33-4.78-1.35-9.73-4.13-12.45-9Z"/><path class="cls-2" d="m77.49,60.91c7.16-1.02,12.02-7.55,11-14.71-1.02-7.16-7.55-12.02-14.71-11-7.1,1.09-12.02,7.67-11,14.71,1.02,7.16,7.55,12.02,14.71,11Z"/><path class="cls-3" d="m80.09,47.41c-.36-2.49-2.62-4.16-5.11-3.81-2.37.35-4.15,2.6-3.79,5.09.36,2.49,2.62,4.16,5.11,3.81,2.49-.35,4.15-2.6,3.79-5.09Z"/><path class="cls-2" d="m114.89,97.32c7.16-1.02,12.02-7.55,11-14.71-1.02-7.16-7.55-12.02-14.71-11-7.1,1.09-12.02,7.67-11,14.71,1.02,7.16,7.55,12.02,14.71,11Z"/><path class="cls-3" d="m117.48,83.83c-.36-2.49-2.62-4.16-5.11-3.81-2.37.35-4.15,2.6-3.79,5.09.36,2.49,2.62,4.16,5.11,3.81,2.49-.35,4.15-2.6,3.79-5.09Z"/><polygon class="cls-3" points="240.97 85.35 217.09 35.89 195.91 35.89 195.91 120.53 195.91 120.53 213.6 120.53 213.6 65.47 233.88 106.53 247.87 106.53 268.15 65.47 268.15 120.53 285.73 120.53 285.73 35.89 264.75 35.89 240.97 85.35"/><path class="cls-3" d="m338.28,68.28c-2-2.7-4.5-4.8-7.49-6.19-3-1.5-6.69-2.2-10.99-2.2-5.2,0-9.89,1.3-14.19,4-4.3,2.6-7.69,6.29-10.19,10.99-2.5,4.7-3.7,9.99-3.7,15.99s1.2,11.29,3.7,15.99c2.5,4.7,5.79,8.39,9.99,10.99,4.2,2.7,8.89,4,14.29,4h0c4.8,0,8.59-.9,11.59-2.7,2.9-1.8,5.3-4,7.09-6.49l1.2,7.79h16.29v-59.25h-16.29l-1.3,7.09Zm-1.2,30.57c-1.2,2.3-3,4.2-5.2,5.5-2.2,1.4-4.7,2-7.59,2h0c-2.9,0-5.5-.7-7.69-2-2.2-1.4-4-3.2-5.2-5.59-1.2-2.4-1.8-5.1-1.8-8.09s.6-5.59,1.8-7.89c1.2-2.3,2.9-4.2,5.2-5.5,2.2-1.4,4.9-2,7.69-2s5.3.7,7.59,2c2.2,1.3,4,3.2,5.2,5.5,1.2,2.3,1.9,4.8,1.9,7.99,0,3.1-.6,5.79-1.9,8.09Z"/><polygon class="cls-3" points="394.43 97.15 378.05 61.18 358.97 61.18 382.84 113.83 386.44 113.83 372.05 146.21 372.05 146.21 390.74 146.21 426.8 61.18 408.02 61.18 394.43 97.15"/><path class="cls-3" d="m480.06,62.98c-3.4-2.1-7.49-3.2-12.59-3.2-4.3,0-8.09.9-11.29,2.8-3.2,1.8-5.79,4.2-7.59,6.99v-33.67h-17.58v84.52h17.58v-31.37c0-3,.5-5.5,1.6-7.59,1.1-2.1,2.5-3.8,4.5-5,1.9-1.2,4.1-1.8,6.49-1.8,4.1,0,6.99,1.2,8.79,3.6,1.8,2.4,2.7,5.79,2.7,10.19v32.07h17.48v-33.57c0-5.79-.8-10.69-2.5-14.69-1.7-4.1-4.2-7.19-7.59-9.29Z"/><path class="cls-3" d="m542.5,63.58c-4.5-2.5-9.49-3.8-15.59-3.8s-11.49,1.4-16.19,4.1c-4.7,2.8-8.19,6.49-10.79,11.29-2.5,4.8-3.8,10.39-3.8,16.29s1.3,11.19,3.9,15.79c2.6,4.6,6.19,8.09,10.79,10.69,4.6,2.5,9.89,3.8,15.99,3.8h0c4.8,0,9.09-.9,12.89-2.7,3.8-1.8,6.99-4.2,9.69-7.19,2.6-3,4.5-6.39,5.59-9.99h-17.98c-.9,1.6-2.2,2.9-3.9,3.9s-3.9,1.6-6.49,1.6-4.9-.6-6.89-1.8c-2-1.2-3.6-2.9-4.6-5-.8-1.7-1.3-3.6-1.4-5.59h42.76c.1-1,.2-2,.2-3s.1-1.9.1-2.6c0-5.79-1.3-10.89-3.8-15.39-2.6-4.3-5.99-7.79-10.49-10.39Zm-28.37,21.28c.3-1.4.7-2.7,1.2-3.8,1.1-2.4,2.7-4.2,4.8-5.3,2-1.2,4.4-1.8,6.89-1.8,3.4,0,6.09,1,8.29,3.1,2.2,2,3.4,4.6,3.6,7.89h-24.78v-.1Z"/><path class="cls-3" d="m657.49,72.17c-1.8-4-4.4-6.99-7.89-9.19-3.5-2.1-7.79-3.2-12.99-3.2-4.2,0-8.09.9-11.59,2.7-3.5,1.8-6.39,4.2-8.69,7.19-1.2-2.2-2.8-4-4.6-5.5-1.8-1.5-3.9-2.5-6.19-3.3s-4.9-1.1-7.79-1.1c-4.1,0-7.69.8-10.79,2.5s-5.59,3.9-7.49,6.49l-1.4-7.59h-15.39v59.15h17.58v-31.47c0-3,.5-5.59,1.5-7.79,1-2.1,2.3-3.7,4-4.9,1.7-1.1,3.7-1.7,5.89-1.7,3.8,0,6.59,1.2,8.29,3.5s2.6,5.79,2.6,10.19v32.07h17.48v-31.47c0-3,.5-5.59,1.5-7.79,1-2.1,2.4-3.7,4.2-4.9,1.8-1.1,3.8-1.7,6.19-1.7,3.6,0,6.29,1.2,7.99,3.5,1.7,2.3,2.6,5.79,2.6,10.19v32.07h17.48v-33.67c.1-5.5-.8-10.29-2.5-14.29Z"/></g></svg>